# xmcd CD database file
#
# Track frame offsets:
#	150
#	16494
#	34192
#	53583
#	72013
#	93083
#	113158
#	135834
#	153446
#	176398
#	195855
#	216362
#	232241
#	255329
#	275357
#	285970
#	303486
#
# Disc length: 4392 seconds
#
# Revision: 0
# Processed by: cddbd v1.5.1PL0 Copyright (c) Steve Scherf et al.
# Submitted via: CDex 1.51
#
DISCID=d8112611
DTITLE=Various Artist - Zouk - Maxi Zouk -  CD 1
DYEAR=1996
DGENRE=Zouk Love
TTITLE0=RALPH THAMAR - Dago
TTITLE1=TANYA ST VAL - MALAVOI - La Gwadeloupeen
TTITLE2=JEAN PHILIPPE MARTHELY - Alle Lave
TTITLE3=KADANS - Lanmitie
TTITLE4=ACOUSTIK ZOUK - Fonds Larion
TTITLE5=MALAVOI - Case a Lucie
TTITLE6=KALI - Lese la Te Tounen
TTITLE7=TONY CHASSEUR - Serena
TTITLE8=SERGE PONSAIR - Peyi Mwen Jodi
TTITLE9=EDITH LEFEL - MALAVOI - La Siren
TTITLE10=CELINE FLERIAG - La Complainte du Mont Pele
TTITLE11=R. THAMAR and M. CANONGE /Gade Boudin Madan'm
TTITLE12=DEDE SAINT-PRIX - Soldat Papillon
TTITLE13=TONY CHASSEUR - Rebeca
TTITLE14=KALI - Racines
TTITLE15=RALPH THAMAR - Exil
TTITLE16=DEDE SAINT-PRIX - Antiyez-la
EXTD=YEAR: 1996
EXTT0=
EXTT1=
EXTT2=
EXTT3=
EXTT4=
EXTT5=
EXTT6=
EXTT7=
EXTT8=
EXTT9=
EXTT10=
EXTT11=
EXTT12=
EXTT13=
EXTT14=
EXTT15=
EXTT16=
PLAYORDER=
